<?xml version="1.0" encoding="UTF-8" standalone="no"?>
<!-- Generator: Adobe Illustrator 18.0.0, SVG Export Plug-In . SVG Version: 6.00 Build 0)  -->
<svg xmlns:dc="http://purl.org/dc/elements/1.1/" xmlns:cc="http://creativecommons.org/ns#" xmlns:rdf="http://www.w3.org/1999/02/22-rdf-syntax-ns#" xmlns:svg="http://www.w3.org/2000/svg" xmlns="http://www.w3.org/2000/svg" xmlns:sodipodi="http://sodipodi.sourceforge.net/DTD/sodipodi-0.dtd" xmlns:inkscape="http://www.inkscape.org/namespaces/inkscape" version="1.1" id="Capa_1" x="0px" y="0px" viewBox="0 0 512 512" style="enable-background:new 0 0 512 512;" xml:space="preserve" width="512px" height="512px" inkscape:version="0.91 r" sodipodi:docname="lamp.svg">
    <metadata id="metadata55">
        <rdf:RDF>
            <cc:Work rdf:about="">
                <dc:format>image/svg+xml</dc:format>
                <dc:type rdf:resource="http://purl.org/dc/dcmitype/StillImage" />
            </cc:Work>
        </rdf:RDF>
    </metadata>
    <defs id="defs53" />
    <sodipodi:namedview pagecolor="#ffffff" bordercolor="#666666" borderopacity="1" objecttolerance="10" gridtolerance="10" guidetolerance="10" inkscape:pageopacity="0" inkscape:pageshadow="2" inkscape:window-width="1280" inkscape:window-height="999" id="namedview51" showgrid="false" inkscape:zoom="0.4609375" inkscape:cx="256" inkscape:cy="256" inkscape:window-x="0" inkscape:window-y="0" inkscape:window-maximized="1" inkscape:current-layer="Capa_1" />
    <g id="g3" transform="matrix(0.60169493,0,0,0.59745761,104.13559,108.47457)">
        <path d="m 485.52,0 -448,0 C 19.848,0 0,8.807 0,26.48 l 0,320 C 0,364.152 19.848,381 37.52,381 l 193.48,0 0,30 -17.48,0 c -8.836,0 -16,10 -16,20 l -80,0 c -17.672,0 -32,12.328 -32,30 0,17.672 14.328,30 32,30 l 80,0 c 0,10 7.164,21 16,21 l 96,0 c 8.836,0 16,-11 16,-21 l 80,0 c 17.672,0 32,-12.328 32,-30 0,-17.672 -14.328,-30 -32,-30 l -80,0 c 0,-10 -7.164,-20 -16,-20 l -17.52,0 0,-30 193.52,0 C 503.192,381 512,364.152 512,346.48 l 0,-320 C 512,8.807 503.191,0 485.52,0 Z M 452,311 l -381,0 0,-91 381,0 0,91 z m 0,-161 -381,0 0,-90 381,0 0,90 z" id="path5" inkscape:connector-curvature="0" style="fill:#ececec" />
    </g>
    <g id="g7" transform="matrix(0.60169493,0,0,0.59745761,104.13559,108.47457)">
        <g id="g9">
            <circle cx="299" cy="107" r="32" id="circle11" style="fill:#ececec" />
            <circle cx="395" cy="107" r="32" id="circle13" style="fill:#ececec" />
        </g>
        <g id="g15">
            <circle cx="299" cy="267" r="32" id="circle17" style="fill:#ececec" />
            <circle cx="395" cy="267" r="32" id="circle19" style="fill:#ececec" />
        </g>
    </g>
    <g id="g21" />
    <g id="g23" />
    <g id="g25" />
    <g id="g27" />
    <g id="g29" />
    <g id="g31" />
    <g id="g33" />
    <g id="g35" />
    <g id="g37" />
    <g id="g39" />
    <g id="g41" />
    <g id="g43" />
    <g id="g45" />
    <g id="g47" />
    <g id="g49" />
</svg>
